<?xml version="1.0" encoding="UTF-8"?>
<svg version="1.1" xmlns="http://www.w3.org/2000/svg" width="512" height="512">
<path d="M0 0 C0.66209473 0.13390137 1.32418945 0.26780273 2.00634766 0.40576172 C28.05807106 5.87324374 51.83845631 21.14376996 66.859375 43.21826172 C88.31769985 76.73770837 90.25469221 118.14206447 82.62109375 156.17285156 C78.78759945 173.62248365 71.17802821 190.77559642 59 204 C58.20207031 204.88945312 57.40414062 205.77890625 56.58203125 206.6953125 C45.08354051 218.89016678 31.7086476 226.46618441 16 232 C14.87335938 232.39960938 13.74671875 232.79921875 12.5859375 233.2109375 C-22.66858158 244.40151277 -65.92286627 241.99696063 -99.0390625 225.1484375 C-123.45251459 212.16005784 -140.25202296 190.66111324 -148.46875 164.4453125 C-159.57701033 127.15413887 -157.3642767 85.35558687 -139.27734375 50.69921875 C-125.90284106 26.72260459 -104.04102268 10.42032956 -77.94580078 2.58984375 C-52.68777845 -4.56814929 -25.6906003 -5.3792804 0 0 Z M-92 59 C-108.8202965 79.64766935 -113.09768152 105.09565703 -110.53515625 131.11328125 C-108.38433096 149.87867582 -102.97328705 168.27363658 -87.96484375 180.8671875 C-71.31507735 192.84448981 -53.2972508 195.32619755 -33.1875 195.4375 C-31.91318115 195.4478125 -30.6388623 195.458125 -29.32592773 195.46875 C-9.28838418 195.28253469 9.95549544 190.16875822 24.90234375 176.25 C40.67858341 159.32799992 43.7139374 134.28154857 43.08886719 112.09667969 C42.21224656 91.41421274 36.39506661 71.57299994 21 57 C-7.37354587 33.44720221 -65.09761547 32.09761547 -92 59 Z " fill="#000000" transform="translate(290,24)"/>
<path d="M0 0 C1.05832031 0.56589844 2.11664063 1.13179688 3.20703125 1.71484375 C37.87497667 21.02529828 60.40337006 54.32873149 71.18017578 91.953125 C75.06141383 106.37773811 77.85507835 121.09975544 79 136 C79.06703125 136.86318848 79.1340625 137.72637695 79.203125 138.61572266 C79.40734711 141.40954009 79.5843409 144.20364492 79.75 147 C79.80704102 147.86069092 79.86408203 148.72138184 79.92285156 149.6081543 C80.30539307 157.37118668 79.67002006 165.14637834 74.6640625 171.42578125 C69.77045978 176.05517537 64.06265568 178.28384768 57.375 178.5625 C50.25613257 178.1809528 45.39805796 175.83011577 40.625 170.5625 C36.54780599 165.65392286 35.71830293 160.83729469 35.2890625 154.55859375 C35.18043257 153.08256396 35.07128186 151.60657242 34.96166992 150.13061523 C34.90723724 149.36385468 34.85280457 148.59709412 34.79672241 147.80709839 C32.13964174 111.1420295 23.9049708 75.281437 -5 50 C-28.22067645 31.65015146 -58.10397777 23.06974322 -87.49609375 22.76171875 C-88.27859497 22.75183426 -89.06109619 22.74194977 -89.86730957 22.73176575 C-129.97426074 22.33019086 -168.57874176 27.57971108 -198.6875 56.375 C-211.88543367 70.01209434 -220.06979167 87.85916258 -225 106 C-225.19432617 106.7130127 -225.38865234 107.42602539 -225.58886719 108.16064453 C-227.88679964 117.0134995 -229.05851639 125.88862386 -229.76953125 134.9921875 C-229.83206589 135.7903891 -229.89460052 136.5885907 -229.95903015 137.41098022 C-230.26744187 141.44293984 -230.54614477 145.47460986 -230.78588867 149.51123047 C-231.83087244 165.70654458 -231.83087244 165.70654458 -237.96484375 172.0234375 C-244.96790888 176.82157717 -250.34562435 179.20408705 -259 178 C-266.10887547 175.69219115 -270.30044307 172.4443895 -274 166 C-284.25977984 135.22066047 -268.82426693 87.65819672 -255.1875 59.75 C-237.24649852 24.55266822 -206.82070613 0.00743023 -169.45019531 -12.234375 C-115.71939887 -29.02391044 -49.99037339 -27.23651033 0 0 Z " fill="#000000" transform="translate(354,313)"/>
</svg>
